<svg xmlns="http://www.w3.org/2000/svg" viewBox="0 0 64 64" role="img" aria-label="Apple">
  <path fill="#f4f6f8" d="M42.2 5.8c.5 4-1.2 7.8-3.4 10.3-2.4 2.8-6 4.9-9.6 4.6-.6-3.8 1.4-7.7 3.6-10.1 2.5-2.7 6.5-4.8 9.4-4.8Z"/>
  <path fill="#f4f6f8" d="M51.8 45.4c-1.4 3.3-2 4.8-3.8 7.7-2.5 3.9-6 8.8-10.3 8.9-3.8.1-4.8-2.6-10-2.6s-6.3 2.5-10.1 2.6c-4.3.2-7.6-5.3-10.1-9.2-6.9-10.8-7.6-23.5-3.4-30.2 3-4.8 7.8-7.6 12.2-7.6 4.5 0 7.3 2.6 11 2.6 3.6 0 5.8-2.6 11-2.6 3.9 0 8.1 2.1 11.1 5.8-9.8 5.4-8.2 19.4 2.4 24.6Z"/>
</svg>
